<?xml version="1.0" encoding="utf-8"?>
<!-- Generator: Adobe Illustrator 23.0.4, SVG Export Plug-In . SVG Version: 6.00 Build 0)  -->
<svg version="1.1" id="Capa_1" xmlns="http://www.w3.org/2000/svg" xmlns:xlink="http://www.w3.org/1999/xlink" x="0px" y="0px"
	 viewBox="0 0 463.5 463.5" style="enable-background:new 0 0 463.5 463.5;" xml:space="preserve">
<style type="text/css">
	.st0{fill:#FFFFFF;}
</style>
<g>
	<g>
		<path class="st0" d="M230.4,54c-0.6-5.9-2.4-11.6-5.3-16.7c-3-5.3-7.1-9.9-12-13.4c-10.5-7.5-25.6-11.4-45.7-9.2
			c-24,2.6-49.1-11.6-52-13.2c-3.1-2.3-7.6-1.6-9.9,1.5c-1,1.4-1.5,3.2-1.3,4.9c4.2,41.2,14,69.2,26.3,86.8
			c6.9,10.8,17.2,19.1,29.2,23.6c10.3,3.5,21.5,3.1,31.5-1c3-1.2,5.8-2.6,8.5-4.2c-0.5-0.9-1.1-1.9-1.7-2.8c-2-3.1-4.4-5.9-7.1-8.4
			c-1.5,0.9-3.1,1.7-4.8,2.3c-6.9,2.9-14.6,3.1-21.7,0.8c-9.1-3.6-16.9-10-22.1-18.3c-9.8-14-17.8-35.8-22.2-67.2
			c11.8,5.1,30.4,11.2,48.7,9.2c16.3-1.8,28,1,36,6.6c3.3,2.3,6,5.4,8,8.9c1.9,3.5,3.1,7.4,3.6,11.4c0.4,3.8,0.2,7.7-0.5,11.4
			c4.2,3.3,8.1,7.1,11.6,11.1C230.2,70.3,231.2,62.1,230.4,54z"/>
	</g>
</g>
<g>
	<g>
		<path class="st0" d="M296.3,72.3c-3.2-2.3-7.6-1.5-9.9,1.6c-0.1,0.1-0.1,0.2-0.2,0.2c-5,7.4-12.6,11.5-20.4,15.8
			c-12,6.6-24.6,13.5-32.6,30.7c-9.6-35.2-29.6-46.2-48.9-56.8c-10.8-5.9-21.2-11.6-28.4-22.1c-2.3-3.2-6.7-3.9-9.9-1.6
			c-3.1,2.2-3.9,6.5-1.8,9.6c9,13.2,21,19.8,33.2,26.5c20.3,11.1,41.7,22.8,46.2,73.6c0.6,0,6.2,0,8.3,0s7.4,0,8,0.2
			c4.3-32,18.8-40,32.6-47.4c9.4-5.3,18.4-10.2,25.3-20.4C300.2,79,299.5,74.5,296.3,72.3z"/>
	</g>
</g>
<g>
	<g>
		<path class="st0" d="M231.9,163.7c-82.8-0.1-150,67-150,149.8c0,39.8,15.7,77.9,43.8,106c28.1,28.2,66.2,44,106,44
			c82.8,0.1,150-67,150-149.8S314.7,163.8,231.9,163.7z M305.2,199.6c25.7,16.6,45,41.3,54.9,70.2c-9-7.6-18.7-14.5-28.9-20.4
			C311.7,237.4,297.2,228.4,305.2,199.6z M124,396.3c-18.2-23.7-28.1-52.7-28-82.6c-0.1-36,14.2-70.5,39.6-96
			c6.5,17.9,19.3,28.9,31,39c10.7,9.2,20.2,17.4,20.4,28.9c0,8.3-5,14.6-10.6,21.5c-8,8.6-13.7,19-16.8,30.2
			c-1.1,7.3-1.4,14.7-0.7,22c0.4,11.8,1,25.5-2.7,34.1C152.9,401.4,144.2,404.6,124,396.3z M231.7,449.4L231.7,449.4
			c-5.5,0-11.1-0.4-16.6-1c-4.2-9.5-1.1-20.6,7.4-26.5c6.2-4.6,23.4,0.6,41.6,6c9.4,2.8,18.9,5.6,28,7.4
			C273.3,444.5,252.6,449.4,231.7,449.4z M312.9,422.4c-11.3,2-28.4-3.2-44.9-8c-21.6-6.4-42-12.5-54-3.8
			c-11.5,7.6-17.2,21.5-14.4,35c-21.4-5.2-41.2-15.5-57.7-30.1c11.9,1.6,23.3-5.3,27.3-16.5c4.9-11.4,4.3-26.9,4-40.2
			c-0.5-6.1-0.4-12.2,0.3-18.2c2.7-9.2,7.4-17.6,14-24.5c7.4-9,14-17.2,13.8-30.6c-0.3-17.9-12-28-25.4-39.4
			c-11.4-9.8-24-20.7-28.6-38.6c23.9-19.1,53.6-29.4,84.2-29.4c21.2,0,42,4.9,60.9,14.4c-13.6,41.6,5.4,53.2,31.1,69.2
			c13.8,8.5,29.9,18.4,42.6,36.2c0.6,5.3,0.9,10.7,0.9,16C367.2,356.5,347.1,396.7,312.9,422.4z"/>
	</g>
</g>
<g>
	<g>
		<path class="st0" d="M321.7,42.6c-1.5-0.1-3,0.2-4.3,0.9c0,0-19.6,11.6-37.8,9.6c-15.3-1.7-27,1.3-35.1,7.2
			c-3.9,2.8-7.1,6.4-9.5,10.5c-2.2,4-3.6,8.5-4,13.1c-0.5,4.4-0.3,8.9,0.6,13.3c4-4.3,8.5-8.1,13.4-11.4v-0.4
			c0.3-2.7,1.1-5.3,2.4-7.7c1.3-2.3,3.2-4.4,5.4-5.9c5.4-4,13.8-5.8,25.3-4.6c11.6,0.8,23.3-1.1,34-5.7c-3.3,21.3-9,36-15.7,45.8
			c-3.6,5.8-9,10.4-15.4,12.9c-3.7,1.3-7.8,1.5-11.6,0.5c-3.7,3.4-7,7.2-9.8,11.4l1.5,0.6c7.8,3.2,16.6,3.5,24.6,0.8
			c9.3-3.5,17.2-9.9,22.5-18.2C317.4,102,324.8,81,328,50.2C328.5,46.4,325.6,42.9,321.7,42.6z"/>
	</g>
</g>
</svg>
